<svg id="f359afd2-196b-4e50-b5a1-72b2dd4ba66b" data-name="Pink and red" xmlns="http://www.w3.org/2000/svg" width="289.9" height="149.6" viewBox="0 0 289.9 149.6"><title>Artboard 1</title><polygon points="0.1 52.2 0.1 97 32.8 97 32.8 86.3 12.9 86.3 12.9 79.8 29.6 79.8 29.6 69.1 12.9 69.1 12.9 62.9 32 62.9 32 52.2 0.1 52.2" style="fill:#ea5198"/><polygon points="46.2 81.9 43.7 97.1 35.6 97.1 41.4 73.2 36 52.2 43.9 52.2 46.4 65.6 46.6 65.6 49 52.2 56.9 52.2 51.4 73.2 57.3 97.1 49 97.1 46.4 81.9 46.2 81.9" style="fill:#ea5198"/><polygon points="60.5 97 60.5 90.5 65.4 90.5 65.4 58.7 60.5 58.7 60.5 52.2 77.9 52.2 77.9 58.7 73.8 58.7 73.8 69.6 86 69.6 86 58.7 81.9 58.7 81.9 52.2 99.3 52.2 99.3 58.7 94.4 58.7 94.4 90.5 99.3 90.5 99.3 97 81.9 97 81.9 90.5 86 90.5 86 75.9 73.8 75.9 73.8 90.5 77.9 90.5 77.9 97 60.5 97" style="fill:#ea5198"/><polygon points="109 52.2 109 56.8 109 92.4 109 97 103.3 97 103.3 92.4 103.3 56.8 103.3 52.2 109 52.2" style="fill:#ea5198"/><path d="M125.6,87.5h6c3,0,4.6-1.4,4.6-4.1s-1.5-4.1-4.6-4.1h-6Zm0-17.5H130c3,0,4.6-1.4,4.6-4.1s-1.5-4.1-4.6-4.1h-4.4ZM113.2,52.2H131c5.3,0,9.3,1,12.1,3a10.2,10.2,0,0,1,4.1,8.7,12,12,0,0,1-1.2,5.5,8.8,8.8,0,0,1-3.6,3.8,9.9,9.9,0,0,1,5.3,3.9,11.79,11.79,0,0,1,1.9,6.8c0,8.8-5.6,13.2-16.7,13.2H113.3V52.2Z" style="fill:#ea5198"/><path d="M149.3,95.8h.3c2.2,0,3.1-1.2,3.1-4V57.3c0-2.8-.8-4-3.1-4h-.3V52.1h14.8v1.2h-.4c-2.2,0-3,1.2-3,4V91.8c0,2.8.8,4,3,4h.4V97H149.3Z" style="fill:#ea5198"/><polygon points="180.4 59.1 180.4 92.4 180.5 97 172.8 97 172.9 92.4 172.9 59.1 167.6 59.1 167.6 52.2 185.6 52.2 185.6 59.1 180.4 59.1" style="fill:#ea5198"/><rect x="188.9" y="52.2" width="14.1" height="44.9" style="fill:#ea5198"/><path d="M234.8,75c0-13.3-1.4-22-7-22s-7.1,8.7-7.1,21.8c0,13.3,1.5,22,7.1,22s7-8.8,7-21.8m-27.9,0c0-15.2,10.1-23.3,20.9-23.3s20.7,7.6,20.7,23.1-9.9,23.3-20.7,23.3S206.9,90.3,206.9,75" style="fill:#ea5198"/><polygon points="272.9 52.2 272.9 59.6 276.6 59.6 276.6 84.4 268.2 52.2 249.7 52.2 249.7 59.6 254.6 59.6 254.6 89.6 249.7 89.6 249.7 97 266.7 97 266.7 89.6 262.9 89.6 262.9 64.8 271.4 97 284.9 97 284.9 59.6 289.8 59.6 289.8 52.2 272.9 52.2" style="fill:#ea5198"/><path d="M13.4,125.2h6.2c1.9,0,3.2-.4,4-1.3s1.2-2.4,1.2-4.5v-3c0-2.2-.4-3.7-1.2-4.6s-2.1-1.3-4-1.3H13.4Zm4.1,23.7H0v-6.6H4.9V110.5H0V104H21.7c3.6,0,6.5,1.1,8.5,3.2s3,5.2,3,9v3.3a14.36,14.36,0,0,1-1.8,7.5,8.91,8.91,0,0,1-5.2,4.1L31,142.4h5.1v6.5H25.2l-7.3-17.1H13.4v10.5h4.1Z" style="fill:#ea5198"/><path d="M61.8,137.1a9.13,9.13,0,0,0,6.9-2.9,10.87,10.87,0,0,0,2.7-7.6,11.13,11.13,0,0,0-2.7-7.7,8.87,8.87,0,0,0-6.9-3,9.13,9.13,0,0,0-6.9,2.9,10.71,10.71,0,0,0-2.7,7.6,11.13,11.13,0,0,0,2.7,7.7,8.87,8.87,0,0,0,6.9,3m0,12.3a25.8,25.8,0,0,1-12.2-2.8,21.82,21.82,0,0,1-8.5-8,22.84,22.84,0,0,1-3.1-12,22.06,22.06,0,0,1,3-11.4,22.32,22.32,0,0,1,8.4-8.3,24.3,24.3,0,0,1,12.4-3.1A25.8,25.8,0,0,1,74,106.6a21.82,21.82,0,0,1,8.5,8,22.84,22.84,0,0,1,3.1,12,22.06,22.06,0,0,1-3,11.4,22.32,22.32,0,0,1-8.4,8.3,24.3,24.3,0,0,1-12.4,3.1" style="fill:#ea5198"/><path d="M97.4,132.7h3.7L100,120.8l-.6-7.2h-.2c-.2,1.6-.5,5-.7,7.2Zm-1.5,16.2H88.5L94,104h10.4l5.7,44.9h-7.5l-.9-9.1h-5Z" style="fill:#ea5198"/><path d="M129.1,147.7c4.8,0,6.2-8.1,6.2-21.1s-1.1-21.4-6.4-21.4h-.3c-1.6,0-2.3,1-2.3,3.9v34.8c0,2.8.5,3.9,2.3,3.9l.5-.1Zm-14.2,0h.3c2.2,0,3.1-1.2,3.1-4V109.2c0-2.8-.8-4-3.1-4h-.3V104h13.9c8.6,0,15.2,7.9,15.2,22.3s-6.4,22.6-15.2,22.6h-14v-1.2Z" style="fill:#ea5198"/><polygon points="0.3 0.7 0.3 4.3 5.4 4.3 5.4 41 5.4 45.6 9.3 45.6 9.2 41 9.2 4.3 14.3 4.3 14.3 0.7 0.3 0.7" style="fill:#d5102e"/><polygon points="29.1 0.7 29.1 5.3 29.1 20.3 22.9 20.3 22.9 5.3 22.9 0.7 19 0.7 19.1 5.3 19.1 41 19 45.6 22.9 45.6 22.9 41 22.9 24 29.1 24 29.1 41 29.1 45.6 33 45.6 32.9 41 32.9 5.3 33 0.7 29.1 0.7" style="fill:#d5102e"/><polygon points="39.8 0.7 39.9 5.3 39.9 41 39.8 45.6 51.9 45.6 51.9 41.9 43.6 41.9 43.6 24 50.2 24 50.2 20.3 43.6 20.3 43.6 4.3 51.7 4.3 51.7 0.7 39.8 0.7" style="fill:#d5102e"/><path d="M66.5,44.2c-1.5-1.9-2.2-4.5-2.2-12.1V14.2c0-6.3.1-14.2,6.9-14.2,6.6,0,6.9,7.7,6.9,13.4v.2H74.3v-.2c0-6.1-.2-9.6-3.1-9.6s-3.1,3.5-3.1,9.6V32.9c0,5.5.1,9.6,3.1,9.6s3.4-4.5,3.4-9.9V26.8H71.3V23.1h7V45.6H76.4l-.8-3.9h0c-.9,3.5-2.6,4.6-4.8,4.6a5.94,5.94,0,0,1-4.3-2.1" style="fill:#d5102e"/><path d="M88.3,22.2H90c3.4,0,4.5-3.8,4.5-8.8v-.2c0-5-.9-8.9-4.9-8.9H88.4V22.2Zm5.9,2.3,4.7,21h-4L90.8,25.7H88.3V40.9l.1,4.6H84.5l.1-4.6V5.3L84.5.7H90c6.8,0,8.5,5.6,8.5,12.5v.1c-.1,5-1.3,9.2-4.3,11.2" style="fill:#d5102e"/><polygon points="104.1 0.7 104.2 5.3 104.2 41 104.1 45.6 116.2 45.6 116.2 41.9 108 41.9 108 24 114.5 24 114.5 20.3 108 20.3 108 4.3 116 4.3 116 0.7 104.1 0.7" style="fill:#d5102e"/><path d="M125.5,30.8h4.8l-1.8-17.9c-.2-2.1-.4-5.1-.5-6.5h-.2c-.1,1.4-.3,4.5-.5,6.5ZM124,45.6h-3.9L125.3.7h5.2l5.1,44.9h-3.8l-1.1-11h-5.6Z" style="fill:#d5102e"/><polygon points="138.8 0.7 138.8 4.3 143.9 4.3 143.9 41 143.9 45.6 147.8 45.6 147.7 41 147.7 4.3 152.8 4.3 152.8 0.7 138.8 0.7" style="fill:#d5102e"/><polygon points="154.8 104 154.9 108.6 154.9 144.3 154.8 148.9 158.9 148.9 158.9 144.3 158.9 127.3 165.8 127.3 165.8 123.6 158.9 123.6 158.9 107.6 167.3 107.6 167.3 104 154.8 104" style="fill:#d5102e"/><polygon points="171.6 104 171.6 108.6 171.6 144.3 171.6 148.9 184.3 148.9 184.3 145.2 175.6 145.2 175.6 127.3 182.5 127.3 182.5 123.6 175.6 123.6 175.6 107.6 184.1 107.6 184.1 104 171.6 104" style="fill:#d5102e"/><path d="M192.8,136.7c.2,6.2,1.6,9,4.1,9,2.2,0,3.5-2.2,3.5-6.2,0-3.8-1.2-6.2-3.4-9.4l-3.4-4.8c-3.1-4.4-4.2-7.9-4.2-11.9,0-6.5,3.1-10.2,7.4-10.2,4.5,0,7,4.3,7.4,11.2l-3.9.5c-.1-4.8-1.2-7.9-3.6-7.9-1.9,0-3.2,2-3.2,6s1.2,6.1,3.3,9.1l3.4,5c2.9,4.1,4.2,7.5,4.2,12.2,0,6.6-2.9,10.3-7.5,10.3-5,0-7.8-4.4-8.2-12.4Z" style="fill:#d5102e"/><polygon points="207.7 104 207.7 107.6 213.1 107.6 213.1 144.3 213 148.9 217.1 148.9 217.1 144.3 217.1 107.6 222.4 107.6 222.4 104 207.7 104" style="fill:#d5102e"/><polygon points="227.8 104 227.9 108.6 227.9 144.3 227.8 148.9 231.9 148.9 231.8 144.3 231.8 108.6 231.9 104 227.8 104" style="fill:#d5102e"/><path d="M237.6,104h4.2l3.5,30.1c.2,2,.4,4.5.5,5.9h.2c.1-1.4.3-3.9.6-5.9l3.5-30.1h4.1l-6,44.8h-4.5Z" style="fill:#d5102e"/><path d="M261.2,134.1h5l-1.9-17.9c-.2-2.1-.4-5.1-.6-6.5h-.2c-.1,1.4-.3,4.5-.6,6.5Zm-1.5,14.8h-4.1l5.5-44.8h5.5l5.4,44.8h-4l-1.2-11h-5.9Z" style="fill:#d5102e"/><polygon points="276.5 104 276.6 108.6 276.6 144.3 276.5 148.9 289.9 148.9 289.9 145.2 280.6 145.2 280.6 108.6 280.6 104 276.5 104" style="fill:#d5102e"/></svg>