<?xml version="1.0" encoding="UTF-8" standalone="no"?>
<!-- Generator: Adobe Illustrator 24.1.1, SVG Export Plug-In . SVG Version: 6.00 Build 0)  -->

<svg
   version="1.1"
   id="Layer_1"
   x="0px"
   y="0px"
   viewBox="0 0 512 512"
   style="enable-background:new 0 0 512 512;"
   xml:space="preserve"
   sodipodi:docname="orcid.svg"
   inkscape:version="1.3.2 (091e20ef0f, 2023-11-25)"
   xmlns:inkscape="http://www.inkscape.org/namespaces/inkscape"
   xmlns:sodipodi="http://sodipodi.sourceforge.net/DTD/sodipodi-0.dtd"
   xmlns="http://www.w3.org/2000/svg"
   xmlns:svg="http://www.w3.org/2000/svg"><defs
   id="defs1" /><sodipodi:namedview
   id="namedview1"
   pagecolor="#ffffff"
   bordercolor="#000000"
   borderopacity="0.25"
   inkscape:showpageshadow="2"
   inkscape:pageopacity="0.0"
   inkscape:pagecheckerboard="0"
   inkscape:deskcolor="#d1d1d1"
   inkscape:zoom="0.4609375"
   inkscape:cx="254.91525"
   inkscape:cy="256"
   inkscape:window-width="2252"
   inkscape:window-height="1455"
   inkscape:window-x="0"
   inkscape:window-y="0"
   inkscape:window-maximized="0"
   inkscape:current-layer="Layer_1" />
<g
   id="g1"
   style="fill:#828282;fill-opacity:1">
	<path
   d="M256,0C114.6,0,0,114.6,0,256s114.6,256,256,256s256-114.6,256-256S397.4,0,256,0z M157.2,93.4c11.3,0,20.2,9.2,20.2,20.2   c0,11-9,20.2-20.2,20.2c-11.1-0.1-20.2-9.1-20.2-20.2C137,102.4,146,93.4,157.2,93.4z M141.8,158.2h30.8v214.3h-30.8V158.2z    M217.8,158.2H301c79.2,0,114,56.7,114,107.3c0,55-43,107.2-113.6,107.2h-83.6L217.8,158.2z M248.6,186v158.8h49   c69.8,0,85.8-53,85.8-79.4c0-43-27.4-79.4-87.4-79.4H248.6z"
   id="path1"
   style="fill:#828282;fill-opacity:1" />
</g>
</svg>
